<svg xmlns="http://www.w3.org/2000/svg" width="181.825" height="56.597" viewBox="0 0 181.825 56.597"><path d="M125.421,24.109a15.611,15.611,0,0,0-8.083,2.226A3.906,3.906,0,0,0,115.5,24.53a3.989,3.989,0,0,0-2.577-.29,3.942,3.942,0,0,0-2.2,1.353A3.839,3.839,0,0,0,109.861,28V63.893a3.85,3.85,0,0,0,1.223,2.6,3.979,3.979,0,0,0,5.41,0,3.85,3.85,0,0,0,1.223-2.6V52.663a15.769,15.769,0,0,0,15.495-.075A15.443,15.443,0,0,0,138.873,47a15.028,15.028,0,0,0-2.48-18.42A15.659,15.659,0,0,0,125.421,24.109Zm0,22.827a7.757,7.757,0,0,1-2.993-.511,7.66,7.66,0,0,1-2.555-1.618,7.524,7.524,0,0,1-1.714-2.469,7.43,7.43,0,0,1,0-5.863,7.534,7.534,0,0,1,1.712-2.47,7.67,7.67,0,0,1,2.554-1.619,7.738,7.738,0,0,1,8.266,1.764,7.453,7.453,0,0,1,0,10.507,7.709,7.709,0,0,1-5.274,2.278Zm54.2,13.439a4,4,0,0,0-3-.293,3.933,3.933,0,0,0-2.335,1.882l-.023.046a3.827,3.827,0,0,0-.207,2.9,3.9,3.9,0,0,0,1.888,2.229,4,4,0,0,0,2.93.318,3.938,3.938,0,0,0,2.336-1.77l.029-.058a3.812,3.812,0,0,0-.42-4.293A3.91,3.91,0,0,0,179.622,60.376Zm-6.422-32.2a3.837,3.837,0,0,0-.842-2.374,3.94,3.94,0,0,0-2.145-1.365,3.989,3.989,0,0,0-2.543.219,3.908,3.908,0,0,0-1.871,1.711,15.753,15.753,0,0,0-8.077-2.255,15.3,15.3,0,1,0,8.03,28.382,3.9,3.9,0,0,0,1.833,1.806,3.99,3.99,0,0,0,2.577.29,3.94,3.94,0,0,0,2.2-1.353,3.832,3.832,0,0,0,.867-2.407V40.251c.024-.275.024-.545.024-.844,0-.27,0-.574-.024-.844V28.172Zm-7.85,11.8a7.493,7.493,0,0,1-2.522,5.064,7.738,7.738,0,0,1-10.617-.379,7.453,7.453,0,0,1,0-10.461,7.738,7.738,0,0,1,10.617-.379,7.493,7.493,0,0,1,2.522,5.064ZM60.31,24.109a15.529,15.529,0,1,0,.006,0Zm0,22.827a7.758,7.758,0,0,1-2.992-.51,7.666,7.666,0,0,1-2.555-1.617,7.532,7.532,0,0,1-1.715-2.468,7.428,7.428,0,0,1,0-5.863,7.531,7.531,0,0,1,1.712-2.471,7.666,7.666,0,0,1,2.553-1.62,7.743,7.743,0,0,1,8.267,1.759,7.452,7.452,0,0,1,.008,10.507A7.708,7.708,0,0,1,60.31,46.937Zm44.132-22.655a3.964,3.964,0,0,0-2.776,1.134,3.844,3.844,0,0,0-1.152,2.733v11.3a7.52,7.52,0,0,1-2.373,5.117,7.773,7.773,0,0,1-10.608,0,7.518,7.518,0,0,1-2.374-5.117V28.172a3.848,3.848,0,0,0-1.223-2.6,3.978,3.978,0,0,0-5.409,0,3.848,3.848,0,0,0-1.223,2.6v11.3a15.218,15.218,0,0,0,4.7,10.566,15.739,15.739,0,0,0,21.71,0,15.221,15.221,0,0,0,4.7-10.566v-11.3a3.89,3.89,0,0,0-1.176-2.753A4.011,4.011,0,0,0,104.442,24.281Zm86.4-11.752a4,4,0,0,0-2.982.439,3.891,3.891,0,0,0-1.8,2.385l-8.892,34.809a3.836,3.836,0,0,0,.434,2.944,3.944,3.944,0,0,0,2.421,1.779,4,4,0,0,0,2.989-.428,3.893,3.893,0,0,0,1.807-2.384L193.7,17.212a3.78,3.78,0,0,0-.428-2.927,3.857,3.857,0,0,0-1.029-1.117,3.923,3.923,0,0,0-1.387-.639ZM27.559,24.035a15.442,15.442,0,0,0-7.681,2.008V14.876a3.849,3.849,0,0,0-1.156-2.742,3.983,3.983,0,0,0-5.571,0A3.849,3.849,0,0,0,12,14.882V50.758a3.848,3.848,0,0,0,1.215,2.605,3.978,3.978,0,0,0,5.41.016,3.849,3.849,0,0,0,1.231-2.6V39.35a7.679,7.679,0,0,1,15.355,0V50.781a3.849,3.849,0,0,0,1.223,2.6,3.978,3.978,0,0,0,5.409,0,3.849,3.849,0,0,0,1.223-2.6V39.35A15.055,15.055,0,0,0,41.9,33.489a15.243,15.243,0,0,0-3.358-4.973,15.513,15.513,0,0,0-5.039-3.323,15.7,15.7,0,0,0-5.948-1.164Z" transform="translate(-12 -11)"/></svg>