<svg xmlns="http://www.w3.org/2000/svg" width="27.036" height="18.139" viewBox="0 0 27.036 18.139"><defs><style>.a{fill:#5d5d5d;}</style></defs><g transform="translate(0 0)"><g transform="translate(0)"><path class="a" d="M28.118,29.2H4.917A1.92,1.92,0,0,1,3,27.284v-14.3a1.92,1.92,0,0,1,1.917-1.918h23.2a1.92,1.92,0,0,1,1.918,1.918v14.3A1.92,1.92,0,0,1,28.118,29.2ZM4.917,11.615a1.367,1.367,0,0,0-1.366,1.366v14.3A1.367,1.367,0,0,0,4.917,28.65h23.2a1.367,1.367,0,0,0,1.366-1.366v-14.3a1.367,1.367,0,0,0-1.366-1.366Z" transform="translate(-3 -11.063)"/></g><g transform="translate(0 3.655)"><path class="a" d="M29.76,18.24H3.276a.276.276,0,1,1,0-.552H29.76a.276.276,0,1,1,0,.552Z" transform="translate(-3 -17.688)"/></g><g transform="translate(0 7.104)"><path class="a" d="M29.76,24.49H3.276a.276.276,0,1,1,0-.552H29.76a.276.276,0,1,1,0,.552Z" transform="translate(-3 -23.938)"/></g><g transform="translate(3.269 15.945)"><path class="a" d="M10.855,40.513H9.2a.276.276,0,0,1,0-.552h1.655a.276.276,0,0,1,0,.552Z" transform="translate(-8.924 -39.961)"/></g><g transform="translate(7.131 15.945)"><path class="a" d="M17.855,40.513H16.2a.276.276,0,0,1,0-.552h1.655a.276.276,0,0,1,0,.552Z" transform="translate(-15.924 -39.961)"/></g><g transform="translate(20.692 12.687)"><path class="a" d="M42.435,37.926a1.935,1.935,0,1,1,1.934-1.934A1.936,1.936,0,0,1,42.435,37.926Zm0-3.318a1.383,1.383,0,1,0,1.383,1.383A1.385,1.385,0,0,0,42.435,34.608Z" transform="translate(-40.501 -34.056)"/></g><g transform="translate(18.132 12.685)"><path class="a" d="M37.795,37.926a1.937,1.937,0,0,1,0-3.873,1.912,1.912,0,0,1,1.493.713.276.276,0,0,1-.429.347,1.361,1.361,0,0,0-1.064-.509,1.385,1.385,0,0,0,0,2.77,1.36,1.36,0,0,0,1.064-.509.276.276,0,0,1,.429.347A1.912,1.912,0,0,1,37.795,37.926Z" transform="translate(-35.862 -34.053)"/></g></g></svg>