<svg xmlns="http://www.w3.org/2000/svg" width="24.493" height="19.427" viewBox="0 0 24.493 19.427"><defs><style>.a,.b{fill:#5d5d5d;}.b{fill-rule:evenodd;}</style></defs><g transform="translate(0 0)"><path class="a" d="M2.092,1.412H24.131A1.233,1.233,0,0,1,25.36,2.641V19.615a1.233,1.233,0,0,1-1.229,1.225H2.092A1.225,1.225,0,0,1,.867,19.615V2.641A1.225,1.225,0,0,1,2.092,1.412Zm22.039.765H2.092a.466.466,0,0,0-.459.464V19.615a.467.467,0,0,0,.134.325.456.456,0,0,0,.325.134H24.131a.44.44,0,0,0,.325-.134.452.452,0,0,0,.139-.325V2.641a.474.474,0,0,0-.464-.464Z" transform="translate(-0.867 -1.412)"/><path class="b" d="M1.355,1.855H2.387V17.048H1.355Z" transform="translate(0.981 0.264)"/><path class="b" d="M1.757,1.855H3.492V17.048H1.757Z" transform="translate(2.501 0.264)"/><path class="b" d="M2.247,1.855h.569V17.048H2.247Z" transform="translate(4.356 0.264)"/><path class="b" d="M2.545,1.855H3.911V17.048H2.545Z" transform="translate(5.483 0.264)"/><path class="b" d="M5.3,1.855H4.271V17.048H5.3Z" transform="translate(12.015 0.264)"/><path class="b" d="M5.458,1.855H3.723V17.048H5.458Z" transform="translate(9.938 0.264)"/><path class="b" d="M4.045,1.855H3.476V17.048h.569Z" transform="translate(9.006 0.264)"/><path class="b" d="M4.378,1.855H3.012V17.048H4.378Z" transform="translate(7.249 0.264)"/><path class="b" d="M4.595,1.855h.516V17.048H4.595Z" transform="translate(13.239 0.264)"/><path class="b" d="M4.889,1.855H6.624V17.048H4.889Z" transform="translate(14.352 0.264)"/><path class="b" d="M5.379,1.855h.569V17.048H5.379Z" transform="translate(16.206 0.264)"/></g></svg>