<svg xmlns="http://www.w3.org/2000/svg" width="18.949" height="16.38" viewBox="0 0 18.949 16.38"><defs><style>.a{fill:#5d5d5d;}</style></defs><path class="a" d="M111.723,152H127.2a1.784,1.784,0,0,1,1.239.514,1.843,1.843,0,0,1,.514,1.239V168.38l-3.747-2.327H111.723a1.644,1.644,0,0,1-1.209-.514A1.663,1.663,0,0,1,110,164.3V153.753a1.712,1.712,0,0,1,.514-1.239A1.768,1.768,0,0,1,111.723,152Zm15.474.6H111.723a1.168,1.168,0,0,0-.816.332,1.116,1.116,0,0,0-.332.816V164.3a1.068,1.068,0,0,0,.332.816,1.2,1.2,0,0,0,.816.363h13.63l3.022,1.874v-13.6a1.2,1.2,0,0,0-.363-.816A1.116,1.116,0,0,0,127.2,152.6Zm-12.451,3.868H124.2v.6h-9.459Zm0,4.382H124.2v.574h-9.459Z" transform="translate(-110 -152)"/></svg>